<svg height="254" viewBox="0 0 1112 254" width="1112" xmlns="http://www.w3.org/2000/svg" xmlns:xlink="http://www.w3.org/1999/xlink"><mask id="a" fill="#fff"><path d="m0 0h637.5 637.5v533h-1275z" fill="#fff" fill-rule="evenodd"/></mask><g fill="none" fill-rule="evenodd" transform="matrix(-1 0 0 1 1183 -279)"><g fill="#d1f2ff"><rect height="102" mask="url(#a)" rx="8" width="223" x="140" y="443"/><rect height="102" mask="url(#a)" rx="8" width="83" x="1100" y="443"/><rect height="7" mask="url(#a)" rx="3.5" width="74" x="830" y="510"/><path d="m842.569413 489h12.926397c1.215027 0 2.2.984974 2.2 2.2 0 .094741-.006119.189383-.018321.283335l-2.031385 15.641667c-.213563 1.644434-1.614274 2.874998-3.272518 2.874998h-6.275311c-1.626344 0-3.010208-1.184901-3.260641-2.791848l-2.441982-15.669384c-.187096-1.200535.634458-2.325432 1.834993-2.512529.112077-.017466.225338-.026239.338768-.026239z" mask="url(#a)"/><path d="m857.35924 495.730238c2.088183-.276232 2.819177.067585 2.983745.938373.073668.389803-.269397 1.280939-1.189294 2.553973-1.082912 1.49863-2.839986 3.358085-5.262259 5.555296l2.217136 2.44424c5.456635-4.949641 7.989465-8.454795 7.477018-11.166322-.549717-2.908739-3.033009-4.076733-6.659112-3.59706z" fill-rule="nonzero" mask="url(#a)"/><path d="m862 514h10v38h-10z" mask="url(#a)"/><path d="m467 544.5v-27.003205h.000002c0-6.627416 5.372582-11.999999 11.999998-12l16.49679-.000004c6.353047 0 11.503209 5.150161 11.50321 11.503208v.000001l4 .001717v-45.001717c0-6.627417 5.372583-12 12-12h228.013138c6.627417 0 12 5.372583 12 12v45.001717l4-.001717c0-6.352538 5.149749-11.502287 11.502287-11.502287h.000923l16.49679.001324v.000963c6.627041.000532 11.999037 5.372959 11.999037 12l.000963 27.003205z" mask="url(#a)"/></g><path d="m467 544.5v-27.003205h.000002c0-6.627416 5.372582-11.999999 11.999998-12l16.49679-.000004c6.353047 0 11.503209 5.150161 11.50321 11.503208v.000001 7c0 2.761424 2.238576 5 5 5h250.013138c2.761423 0 5-2.238576 5-5v-7c0-6.352538 5.149749-11.502287 11.502287-11.502287h.000923l16.49679.001324v.000963c6.627041.000532 11.999037 5.372959 11.999037 12l.000963 27.003205z" fill="#aae0f6" mask="url(#a)"/><path d="m267 532.5-16-74c6.666667-6.666667 14.833333-6.666667 24.5 0 5 14.333333 11.166667 33.5 18.5 57.5h80.501553c8.665631.333333 12.998447 5.833333 12.998447 16.5s-40.166667 10.666667-120.5 0z" fill="#aae0f6" mask="url(#a)"/><g mask="url(#a)"><rect fill="#fff" fill-rule="evenodd" height="120" rx="8" width="100" x="202" y="279"/><rect height="116" rx="8" stroke="#d6f3ff" stroke-width="4" width="96" x="204" y="281"/></g><g mask="url(#a)"><rect fill="#fff" fill-rule="evenodd" height="69" rx="8" width="55" x="1114" y="293"/><rect height="65" rx="8" stroke="#d6f3ff" stroke-width="4" width="51" x="1116" y="295"/></g><g mask="url(#a)"><path d="m306.043807 443h18.739993c1.338616 0 2.515259-.886859 2.88396-2.173698l7.735942-27c.456354-1.592767-.464891-3.253908-2.057658-3.710262-.268684-.076982-.546808-.11604-.826302-.11604h-18.294117c-1.321742 0-2.487758.865038-2.871073 2.129978l-8.181818 27c-.4805 1.58565.415401 3.260595 2.001051 3.741095.282099.085485.575256.128927.870022.128927z" fill="#fff" fill-rule="evenodd"/><path d="m306.043807 441h18.739993c.446205 0 .83842-.29562.96132-.724566l7.735942-27c.152118-.530922-.154964-1.084636-.685886-1.236754-.089561-.025661-.182269-.03868-.275434-.03868h-18.294117c-.440581 0-.829252.288346-.957024.709993l-8.181818 27c-.160167.52855.138467 1.086865.667017 1.247031.094033.028495.191752.042976.290007.042976z" stroke="#d6f3ff" stroke-width="4"/></g><path d="m331.5 425 4.5 18h-4.5l-3.5-12z" fill="#d1f2ff" mask="url(#a)"/><path d="m281.5 477.5 12.5 38.5h12.5c-8.666667-23.666667-15-36.5-19-38.5s-6-2-6 0z" fill="#aae0f6" mask="url(#a)"/><path d="m178 449.5c4.418278 0 8-7.611159 8-17 0-6.259227-2.666667-13.759227-8-22.5-5.333333 8.740773-8 16.240773-8 22.5 0 9.388841 3.581722 17 8 17z" fill="#d1f2ff" mask="url(#a)"/><path d="m1142 449.5c4.41828 0 8-7.611159 8-17 0-6.259227-2.66667-13.759227-8-22.5-5.33333 8.740773-8 16.240773-8 22.5 0 9.388841 3.58172 17 8 17z" fill="#d1f2ff" mask="url(#a)"/><path d="m880 511.5c4.418278 0 8-7.611159 8-17s-4-22.5-8-22.5-8 13.111159-8 22.5 3.581722 17 8 17z" fill="#d1f2ff" mask="url(#a)"/><path d="m877.852735 451c-1.333333 4-3.666667 5.333333-7 4-5-2 3-5.5 4-5.5s-7.5 2.5-7.5-1.5 7.5-3 8-1.5-5.5-6.5-.5-7.5 3.5 5.5 3.5 6 3-7.5 6-5-.5 5.5-2.5 6 8.5.5 7 3.5-7.5 1.5-8 0 6 5 3 7c-2 1.333333-4-.5-6-5.5z" fill="#d1f2ff" mask="url(#a)"/><circle cx="878.352735" cy="448" fill="#fff" mask="url(#a)" r="2"/><path d="m177.906393 415c22.690782 0 19.758269-1.793103 17.750744-6.275862-2.007524-4.482759-7.947278-19.724138-17.750744-19.724138-9.803465 0-16.165856 15.241379-17.750743 19.724138-1.584888 4.482759-4.940038 6.275862 17.750743 6.275862z" fill="#d1f2ff" mask="url(#a)"/><path d="m1141.90639 415c22.69079 0 19.75827-1.793103 17.75075-6.275862-2.00753-4.482759-7.94728-19.724138-17.75075-19.724138-9.80346 0-16.16585 15.241379-17.75074 19.724138s-4.94004 6.275862 17.75074 6.275862z" fill="#d1f2ff" mask="url(#a)"/><path d="m74.5 533c-4.5345003-65.096951 8.7988331-114.096951 40-147 55-58 142-53 171.5-12.5" mask="url(#a)" stroke="#bae3f6" stroke-width="5"/><path d="m270 403.5-83 134.5h308.5l-190.5-147z" fill="#fff" mask="url(#a)" opacity=".4"/><circle cx="290" cy="402" fill="#fff" mask="url(#a)" r="8"/><path d="m258.676291 401.905445c-.487031-2.087821-.744567-4.263836-.744567-6.5 0-15.740116 12.759885-28.5 28.5-28.5s28.5 12.759884 28.5 28.5c0 2.236164-.257536 4.412179-.744567 6.5z" fill="#aae0f6" mask="url(#a)" transform="matrix(.98480775 -.17364818 .17364818 .98480775 -62.399764 55.578329)"/><path d="m881 475.5c-.3526-13.169127-.908365-21.169127-1.667294-24-.271509-1.012754-1.011751-.35809-1.332706-1-1.140347-2.280695 1 .668986 1 14.5 0 4 .884451 9.620791 1 10.5.165644 1.260382.498977 1.260382 1 0z" fill="#d1f2ff" mask="url(#a)"/></g></svg>