<?xml version="1.0" standalone="no"?>
<!DOCTYPE svg PUBLIC "-//W3C//DTD SVG 20010904//EN"
 "http://www.w3.org/TR/2001/REC-SVG-20010904/DTD/svg10.dtd">
<svg version="1.0" xmlns="http://www.w3.org/2000/svg"
 width="1000.000000pt" height="667.000000pt" viewBox="0 0 1000.000000 667.000000"
 preserveAspectRatio="xMidYMid meet">
<metadata>
Created by potrace 1.15, written by Peter Selinger 2001-2017
</metadata>
<g transform="translate(0.000000,667.000000) scale(0.100000,-0.100000)"
fill="#000000" stroke="none">
<path d="M7237 3732 c-20 -20 -43 -54 -52 -74 -20 -50 -19 -134 4 -184 23 -50
88 -107 141 -123 l40 -12 0 -94 0 -95 -40 0 -40 0 0 -65 c0 -75 17 -116 54
-133 24 -11 26 -17 26 -71 0 -51 -3 -61 -20 -66 -21 -7 -21 -7 -2 -39 10 -18
22 -50 26 -71 4 -22 16 -51 27 -66 23 -32 25 -86 4 -116 -15 -21 -14 -21 91
-28 58 -4 152 -5 208 -3 88 4 112 9 169 35 80 38 144 95 180 161 24 44 26 56
20 115 -3 37 -10 67 -14 67 -5 0 -9 56 -9 125 l0 125 35 0 c41 0 45 12 10 28
-24 11 -25 14 -25 116 0 92 3 109 25 147 27 48 31 82 14 126 -12 32 -57 83
-73 83 -6 0 -24 16 -40 36 -49 62 -63 64 -380 64 l-284 0 -30 25 -29 24 -36
-37z m722 -432 c7 -23 23 -47 37 -57 21 -13 24 -22 22 -52 l-4 -36 -182 -3
-182 -2 0 -25 c0 -21 -5 -25 -30 -25 -25 0 -30 4 -30 25 l0 25 -100 0 -100 0
0 95 0 95 278 0 279 0 12 -40z m-398 -232 c1 -49 2 -51 12 -25 9 22 17 27 44
27 30 0 33 -3 33 -31 0 -22 10 -41 34 -65 33 -33 36 -34 120 -34 79 0 88 2
117 28 26 23 31 36 36 90 6 61 7 63 32 60 l26 -3 -1 -99 c0 -95 -1 -100 -28
-122 -27 -24 -27 -24 -311 -23 l-285 0 0 34 0 34 67 3 c64 3 68 4 87 37 l20
34 -30 -22 c-25 -18 -41 -22 -85 -19 l-54 3 -3 73 -3 72 86 0 85 0 1 -52z
m359 -3 c0 -80 -18 -95 -114 -95 -97 0 -117 15 -124 93 l-4 57 121 0 121 0 0
-55z"/>
<path d="M2213 3679 c-73 -28 -146 -97 -184 -174 -42 -85 -49 -145 -20 -181
18 -22 21 -40 21 -112 0 -84 0 -85 39 -127 l38 -41 107 28 c140 36 255 84 345
142 41 26 76 44 80 41 10 -11 3 -294 -9 -352 -16 -73 -62 -130 -135 -168 -56
-29 -64 -30 -181 -29 l-122 2 -6 -30 c-8 -39 22 -89 77 -129 45 -33 152 -69
203 -69 31 0 34 3 34 30 0 93 64 251 144 357 25 33 55 81 66 105 24 54 50 200
50 278 0 106 -50 225 -130 310 l-33 35 -8 -23 c-10 -27 -33 -25 -37 4 -8 50
-13 62 -34 67 -13 3 -33 8 -45 12 -19 6 -22 3 -25 -32 -2 -26 -8 -38 -18 -38
-11 0 -16 15 -20 55 l-5 55 -70 2 c-51 2 -84 -3 -122 -18z"/>
<path d="M1995 3641 c-95 -54 -170 -146 -206 -249 -22 -64 -54 -467 -47 -597
6 -104 45 -191 118 -259 70 -66 125 -88 233 -94 l89 -5 -31 43 c-52 72 -65
135 -58 278 l7 124 -29 -31 c-102 -109 -291 -37 -291 111 0 60 23 112 62 141
27 20 28 24 28 108 0 69 4 91 18 110 11 13 24 53 31 89 17 84 54 163 104 217
46 50 40 53 -28 14z"/>
<path d="M8328 2080 c-23 -31 -56 -59 -121 -103 -9 -7 -19 -22 -22 -34 -4 -22
-2 -23 85 -23 l89 0 7 34 c3 19 2 63 -3 98 l-8 63 -27 -35z"/>
<path d="M1645 2048 c-4 -18 -5 -54 -3 -78 l3 -45 92 -3 c81 -2 92 -1 87 13
-4 9 -23 24 -44 35 -20 10 -58 40 -83 65 l-46 47 -6 -34z"/>
<path d="M7006 2011 c-52 -8 -86 -36 -86 -72 0 -18 13 -19 348 -19 345 0 347
0 318 19 -16 11 -39 32 -51 48 l-23 28 -229 1 c-125 1 -250 -1 -277 -5z"/>
<path d="M2415 1993 c3 -10 9 -30 12 -45 l6 -28 328 0 c364 0 361 -1 300 61
l-29 29 -312 0 c-293 0 -312 -1 -305 -17z"/>
<path d="M920 1900 c-24 -24 -25 -38 -4 -68 14 -20 23 -22 126 -22 l111 0 -7
-42 c-4 -24 -36 -167 -71 -318 -35 -151 -100 -431 -144 -621 -45 -190 -81
-357 -81 -370 0 -31 17 -49 45 -49 32 0 51 28 65 98 l13 62 237 0 237 0 12
-58 c17 -77 35 -104 68 -100 55 7 55 24 -2 268 -181 774 -255 1099 -255 1114
0 14 15 16 116 16 92 0 114 3 107 13 -21 26 -21 46 -2 71 l20 26 -285 0 c-273
0 -287 -1 -306 -20z m320 -530 c11 -6 24 -27 30 -48 17 -59 150 -635 150 -649
0 -10 -45 -13 -210 -13 -161 0 -210 3 -210 13 0 6 36 162 79 346 79 337 87
361 129 361 7 0 22 -5 32 -10z"/>
<path d="M8513 1909 c11 -6 17 -22 17 -44 0 -22 -6 -38 -17 -44 -13 -8 17 -10
106 -11 l123 0 -6 -37 c-7 -41 -97 -429 -225 -978 -72 -309 -78 -342 -65 -362
19 -30 59 -30 78 0 8 12 19 48 26 79 l11 58 238 0 238 0 12 -58 c17 -77 35
-104 68 -100 58 7 57 17 -23 358 -171 731 -224 959 -230 998 l-7 42 111 0
c103 0 112 2 126 22 21 30 20 44 -4 68 -19 19 -33 20 -307 20 -201 -1 -283 -4
-270 -11z m325 -547 c12 -12 41 -119 90 -327 39 -171 75 -325 78 -342 l7 -33
-212 0 c-170 0 -211 3 -211 13 0 23 151 660 161 678 17 32 60 38 87 11z"/>
<path d="M1688 1765 c61 -158 210 -288 387 -341 93 -28 240 -24 335 9 41 14
77 24 78 22 2 -2 -84 -154 -192 -338 -108 -185 -198 -342 -201 -349 -4 -10 18
-26 73 -51 43 -20 82 -37 87 -37 6 1 107 169 225 375 118 206 218 371 221 367
4 -4 26 -131 49 -282 24 -151 46 -278 49 -282 5 -5 172 18 177 25 1 1 -32 209
-72 462 -41 253 -74 461 -74 463 0 1 -159 2 -352 2 l-353 0 -135 -34 -135 -35
-10 32 -10 32 -82 0 -81 1 16 -41z"/>
<path d="M3971 1761 c-6 -25 -76 -329 -156 -674 -80 -346 -143 -637 -140 -648
7 -23 52 -36 74 -22 8 5 19 25 24 44 4 19 13 51 18 72 l10 37 234 0 234 0 10
-37 c5 -21 13 -51 17 -68 10 -43 22 -55 55 -55 62 0 63 -3 -90 651 -77 332
-147 636 -156 675 l-16 72 -54 0 -54 0 -10 -47z m98 -398 c18 -15 36 -77 96
-338 41 -176 77 -330 80 -342 l5 -23 -215 0 -215 0 5 23 c3 12 39 166 80 342
61 261 78 323 96 338 12 9 27 17 34 17 7 0 22 -8 34 -17z"/>
<path d="M6010 1782 c0 -31 -32 -72 -56 -72 -22 0 -28 28 -10 49 23 25 20 41
-9 41 -14 0 -25 -3 -25 -7 0 -8 -59 -264 -157 -678 -41 -176 -90 -385 -108
-465 -18 -80 -36 -157 -40 -172 -10 -38 10 -68 45 -68 36 0 53 24 69 103 l12
57 238 0 238 0 18 -85 18 -85 426 6 c234 4 428 8 430 11 3 2 0 16 -5 31 -9 26
-14 27 -90 33 -88 7 -116 17 -140 54 -9 14 -25 25 -35 25 -11 0 -19 3 -19 8 0
4 74 218 164 477 138 398 167 472 187 482 19 10 25 10 27 0 1 -7 -69 -220
-158 -474 -88 -253 -160 -464 -160 -470 0 -8 200 -73 225 -73 6 0 39 82 74
183 83 239 270 778 276 795 3 9 20 5 63 -17 88 -44 165 -63 261 -64 105 -1
173 14 271 61 102 48 212 157 264 262 l37 75 -72 3 c-39 2 -74 1 -77 -2 -2 -3
-5 -16 -6 -28 l-1 -23 -317 -3 c-279 -2 -318 0 -318 13 0 18 -8 18 -40 0 -19
-11 -71 -14 -231 -15 -206 0 -207 0 -259 -27 -29 -16 -66 -44 -81 -63 -21 -26
-78 -176 -209 -554 -99 -285 -180 -521 -180 -525 0 -5 18 -13 41 -20 l40 -12
-27 -21 c-26 -21 -27 -21 -40 -3 -8 10 -14 23 -14 28 0 6 -49 8 -119 5 l-118
-4 -21 91 c-79 332 -251 1077 -257 1112 -8 50 -25 67 -25 25z m-6 -415 c13
-10 39 -101 97 -352 43 -186 79 -342 79 -347 0 -4 -94 -8 -210 -8 -172 0 -210
3 -210 14 0 7 34 162 76 342 59 260 79 333 96 347 24 20 48 22 72 4z"/>
</g>
</svg>
